<mxfile host="app.diagrams.net" agent="Mozilla/5.0 (X11; Linux x86_64) AppleWebKit/537.36 (KHTML, like Gecko) Chrome/134.0.0.0 Safari/537.36" version="26.2.8">
  <diagram id="Bug_StunSpore_UseCase" name="Class diagram">
    <mxGraphModel dx="66783" dy="34600" grid="1" gridSize="10" guides="1" tooltips="1" connect="1" arrows="1" fold="1" page="1" pageScale="1" pageWidth="827" pageHeight="1169" math="0" shadow="0">
      <root>
        <mxCell id="0" />
        <mxCell id="1" parent="0" />
        <mxCell id="oBFbup7LQ6fdgkaT58L2-43" value="" style="rounded=0;whiteSpace=wrap;html=1;fillColor=none;" parent="1" vertex="1">
          <mxGeometry x="-13441" y="-6910" width="220" height="270" as="geometry" />
        </mxCell>
        <mxCell id="oBFbup7LQ6fdgkaT58L2-42" value="" style="rounded=0;whiteSpace=wrap;html=1;fillColor=none;" parent="1" vertex="1">
          <mxGeometry x="-12631" y="-6940" width="520" height="340" as="geometry" />
        </mxCell>
        <mxCell id="oBFbup7LQ6fdgkaT58L2-41" value="" style="rounded=0;whiteSpace=wrap;html=1;fillColor=none;" parent="1" vertex="1">
          <mxGeometry x="-13221" y="-7190" width="550" height="190" as="geometry" />
        </mxCell>
        <mxCell id="2" value="Bug" style="shape=umlActor;" parent="1" vertex="1">
          <mxGeometry x="-1570" y="-950" width="50" height="80" as="geometry" />
        </mxCell>
        <mxCell id="3" value="GameManager" style="shape=umlActor;" parent="1" vertex="1">
          <mxGeometry x="-1120" y="-950" width="50" height="80" as="geometry" />
        </mxCell>
        <mxCell id="4" value="StunSpore" style="shape=umlActor;" parent="1" vertex="1">
          <mxGeometry x="-1570" y="-700" width="50" height="80" as="geometry" />
        </mxCell>
        <mxCell id="5" value="Tecton" style="shape=umlActor;" parent="1" vertex="1">
          <mxGeometry x="-1120" y="-700" width="50" height="80" as="geometry" />
        </mxCell>
        <mxCell id="6" value="Move to adjacent Tecton" style="ellipse;whiteSpace=wrap;" parent="1" vertex="1">
          <mxGeometry x="-1370" y="-900" width="160" height="60" as="geometry" />
        </mxCell>
        <mxCell id="7" value="Consume StunSpore" style="ellipse;whiteSpace=wrap;" parent="1" vertex="1">
          <mxGeometry x="-1370" y="-800" width="160" height="60" as="geometry" />
        </mxCell>
        <mxCell id="8" value="Apply Stun Effect" style="ellipse;whiteSpace=wrap;" parent="1" vertex="1">
          <mxGeometry x="-1370" y="-700" width="160" height="60" as="geometry" />
        </mxCell>
        <mxCell id="9" value="Attempt movement while stunned" style="ellipse;whiteSpace=wrap;" parent="1" vertex="1">
          <mxGeometry x="-1370" y="-600" width="160" height="60" as="geometry" />
        </mxCell>
        <mxCell id="10" value="Remove Stun Effect" style="ellipse;whiteSpace=wrap;" parent="1" vertex="1">
          <mxGeometry x="-1370" y="-500" width="160" height="60" as="geometry" />
        </mxCell>
        <mxCell id="11" value="Move again" style="ellipse;whiteSpace=wrap;" parent="1" vertex="1">
          <mxGeometry x="-1370" y="-400" width="160" height="60" as="geometry" />
        </mxCell>
        <mxCell id="12" style="edgeStyle=elbowEdgeStyle;rounded=1;" parent="1" source="2" target="6" edge="1" />
        <mxCell id="13" style="edgeStyle=elbowEdgeStyle;rounded=1;" parent="1" source="2" target="7" edge="1" />
        <mxCell id="14" style="edgeStyle=elbowEdgeStyle;rounded=1;" parent="1" source="4" target="8" edge="1" />
        <mxCell id="15" style="edgeStyle=elbowEdgeStyle;rounded=1;" parent="1" source="2" target="9" edge="1" />
        <mxCell id="16" style="edgeStyle=elbowEdgeStyle;rounded=1;" parent="1" source="3" target="10" edge="1" />
        <mxCell id="17" style="edgeStyle=elbowEdgeStyle;rounded=1;" parent="1" source="2" target="11" edge="1" />
        <mxCell id="oBFbup7LQ6fdgkaT58L2-23" value="&lt;p style=&quot;margin:0px;margin-top:4px;text-align:center;&quot;&gt;&lt;b&gt;Game&lt;/b&gt;&lt;/p&gt;&lt;hr size=&quot;1&quot; style=&quot;border-style:solid;&quot;&gt;&lt;p style=&quot;margin:0px;margin-left:4px;&quot;&gt;+ field: Type&lt;/p&gt;&lt;hr size=&quot;1&quot; style=&quot;border-style:solid;&quot;&gt;&lt;p style=&quot;margin:0px;margin-left:4px;&quot;&gt;+ method(): Type&lt;/p&gt;" style="verticalAlign=top;align=left;overflow=fill;html=1;whiteSpace=wrap;" parent="1" vertex="1">
          <mxGeometry x="-13960" y="-7660" width="160" height="570" as="geometry" />
        </mxCell>
        <mxCell id="oBFbup7LQ6fdgkaT58L2-28" value="&lt;p style=&quot;margin:0px;margin-top:4px;text-align:center;&quot;&gt;&lt;b&gt;Renderer&lt;/b&gt;&lt;/p&gt;&lt;hr size=&quot;1&quot; style=&quot;border-style:solid;&quot;&gt;&lt;p style=&quot;margin:0px;margin-left:4px;&quot;&gt;+ field: Type&lt;/p&gt;&lt;hr size=&quot;1&quot; style=&quot;border-style:solid;&quot;&gt;&lt;p style=&quot;margin:0px;margin-left:4px;&quot;&gt;+ method(): Type&lt;/p&gt;" style="verticalAlign=top;align=left;overflow=fill;html=1;whiteSpace=wrap;" parent="1" vertex="1">
          <mxGeometry x="-13411" y="-6900" width="160" height="90" as="geometry" />
        </mxCell>
        <mxCell id="oBFbup7LQ6fdgkaT58L2-29" value="&lt;p style=&quot;margin:0px;margin-top:4px;text-align:center;&quot;&gt;&lt;b&gt;Game Object&lt;/b&gt;&lt;/p&gt;&lt;hr size=&quot;1&quot; style=&quot;border-style:solid;&quot;&gt;&lt;p style=&quot;margin:0px;margin-left:4px;&quot;&gt;+ field: Type&lt;/p&gt;&lt;hr size=&quot;1&quot; style=&quot;border-style:solid;&quot;&gt;&lt;p style=&quot;margin:0px;margin-left:4px;&quot;&gt;+ method(): Type&lt;/p&gt;" style="verticalAlign=top;align=left;overflow=fill;html=1;whiteSpace=wrap;" parent="1" vertex="1">
          <mxGeometry x="-12450" y="-6920" width="160" height="90" as="geometry" />
        </mxCell>
        <mxCell id="oBFbup7LQ6fdgkaT58L2-30" value="&lt;p style=&quot;margin:0px;margin-top:4px;text-align:center;&quot;&gt;&lt;b&gt;Player&lt;/b&gt;&lt;/p&gt;&lt;hr size=&quot;1&quot; style=&quot;border-style:solid;&quot;&gt;&lt;p style=&quot;margin:0px;margin-left:4px;&quot;&gt;+ field: Type&lt;/p&gt;&lt;hr size=&quot;1&quot; style=&quot;border-style:solid;&quot;&gt;&lt;p style=&quot;margin:0px;margin-left:4px;&quot;&gt;+ method(): Type&lt;/p&gt;" style="verticalAlign=top;align=left;overflow=fill;html=1;whiteSpace=wrap;" parent="1" vertex="1">
          <mxGeometry x="-12591" y="-6740" width="160" height="90" as="geometry" />
        </mxCell>
        <mxCell id="oBFbup7LQ6fdgkaT58L2-33" value="Extends" style="endArrow=block;endSize=16;endFill=0;html=1;rounded=0;" parent="1" source="oBFbup7LQ6fdgkaT58L2-30" target="oBFbup7LQ6fdgkaT58L2-29" edge="1">
          <mxGeometry width="160" relative="1" as="geometry">
            <mxPoint x="-12691" y="-6630" as="sourcePoint" />
            <mxPoint x="-12851" y="-6630" as="targetPoint" />
          </mxGeometry>
        </mxCell>
        <mxCell id="oBFbup7LQ6fdgkaT58L2-34" value="&lt;p style=&quot;margin:0px;margin-top:4px;text-align:center;&quot;&gt;&lt;b&gt;Camera&lt;/b&gt;&lt;/p&gt;&lt;hr size=&quot;1&quot; style=&quot;border-style:solid;&quot;&gt;&lt;p style=&quot;margin:0px;margin-left:4px;&quot;&gt;+ field: Type&lt;/p&gt;&lt;hr size=&quot;1&quot; style=&quot;border-style:solid;&quot;&gt;&lt;p style=&quot;margin:0px;margin-left:4px;&quot;&gt;+ method(): Type&lt;/p&gt;" style="verticalAlign=top;align=left;overflow=fill;html=1;whiteSpace=wrap;" parent="1" vertex="1">
          <mxGeometry x="-12301" y="-6740" width="160" height="90" as="geometry" />
        </mxCell>
        <mxCell id="oBFbup7LQ6fdgkaT58L2-35" value="&lt;p style=&quot;margin:0px;margin-top:4px;text-align:center;&quot;&gt;&lt;b&gt;&lt;i&gt;WindowHandler&lt;/i&gt;&lt;/b&gt;&lt;/p&gt;&lt;hr size=&quot;1&quot; style=&quot;border-style:solid;&quot;&gt;&lt;p style=&quot;margin:0px;margin-left:4px;&quot;&gt;# width: unsigned int&lt;/p&gt;&lt;p style=&quot;margin:0px;margin-left:4px;&quot;&gt;# heigth: unsigned int&lt;/p&gt;&lt;hr size=&quot;1&quot; style=&quot;border-style:solid;&quot;&gt;&lt;p style=&quot;margin:0px;margin-left:4px;&quot;&gt;+ shouldClose():&amp;nbsp; bool=0&lt;/p&gt;&lt;p style=&quot;margin:0px;margin-left:4px;&quot;&gt;+ swapBuffers(): void=0&lt;/p&gt;&lt;p style=&quot;margin:0px;margin-left:4px;&quot;&gt;+ pollEvents(): void=0&lt;/p&gt;" style="verticalAlign=top;align=left;overflow=fill;html=1;whiteSpace=wrap;" parent="1" vertex="1">
          <mxGeometry x="-13970" y="-6830" width="160" height="120" as="geometry" />
        </mxCell>
        <mxCell id="oBFbup7LQ6fdgkaT58L2-36" value="Extends" style="endArrow=block;endSize=16;endFill=0;html=1;rounded=0;" parent="1" source="oBFbup7LQ6fdgkaT58L2-34" target="oBFbup7LQ6fdgkaT58L2-29" edge="1">
          <mxGeometry width="160" relative="1" as="geometry">
            <mxPoint x="-13141" y="-6820" as="sourcePoint" />
            <mxPoint x="-12981" y="-6820" as="targetPoint" />
          </mxGeometry>
        </mxCell>
        <mxCell id="oBFbup7LQ6fdgkaT58L2-37" value="&lt;p style=&quot;margin:0px;margin-top:4px;text-align:center;&quot;&gt;&lt;b&gt;Physics&lt;/b&gt;&lt;/p&gt;&lt;hr size=&quot;1&quot; style=&quot;border-style:solid;&quot;&gt;&lt;p style=&quot;margin:0px;margin-left:4px;&quot;&gt;+ field: Type&lt;/p&gt;&lt;hr size=&quot;1&quot; style=&quot;border-style:solid;&quot;&gt;&lt;p style=&quot;margin:0px;margin-left:4px;&quot;&gt;+ method(): Type&lt;/p&gt;" style="verticalAlign=top;align=left;overflow=fill;html=1;whiteSpace=wrap;" parent="1" vertex="1">
          <mxGeometry x="-12961" y="-6750" width="160" height="90" as="geometry" />
        </mxCell>
        <mxCell id="oBFbup7LQ6fdgkaT58L2-38" value="&lt;p style=&quot;margin:0px;margin-top:4px;text-align:center;&quot;&gt;&lt;b&gt;Collider&lt;/b&gt;&lt;/p&gt;&lt;hr size=&quot;1&quot; style=&quot;border-style:solid;&quot;&gt;&lt;p style=&quot;margin:0px;margin-left:4px;&quot;&gt;+ field: Type&lt;/p&gt;&lt;hr size=&quot;1&quot; style=&quot;border-style:solid;&quot;&gt;&lt;p style=&quot;margin:0px;margin-left:4px;&quot;&gt;+ method(): Type&lt;/p&gt;" style="verticalAlign=top;align=left;overflow=fill;html=1;whiteSpace=wrap;" parent="1" vertex="1">
          <mxGeometry x="-12951" y="-6610" width="160" height="90" as="geometry" />
        </mxCell>
        <mxCell id="oBFbup7LQ6fdgkaT58L2-39" value="&lt;p style=&quot;margin:0px;margin-top:4px;text-align:center;&quot;&gt;&lt;b&gt;Static Geometry&lt;/b&gt;&lt;/p&gt;&lt;hr size=&quot;1&quot; style=&quot;border-style:solid;&quot;&gt;&lt;p style=&quot;margin:0px;margin-left:4px;&quot;&gt;+ field: Type&lt;/p&gt;&lt;hr size=&quot;1&quot; style=&quot;border-style:solid;&quot;&gt;&lt;p style=&quot;margin:0px;margin-left:4px;&quot;&gt;+ method(): Type&lt;/p&gt;" style="verticalAlign=top;align=left;overflow=fill;html=1;whiteSpace=wrap;" parent="1" vertex="1">
          <mxGeometry x="-12961" y="-6880" width="160" height="90" as="geometry" />
        </mxCell>
        <mxCell id="oBFbup7LQ6fdgkaT58L2-40" value="&lt;p style=&quot;margin:0px;margin-top:4px;text-align:center;&quot;&gt;&lt;b&gt;Input System&lt;/b&gt;&lt;/p&gt;&lt;hr size=&quot;1&quot; style=&quot;border-style:solid;&quot;&gt;&lt;p style=&quot;margin:0px;margin-left:4px;&quot;&gt;+ field: Type&lt;/p&gt;&lt;hr size=&quot;1&quot; style=&quot;border-style:solid;&quot;&gt;&lt;p style=&quot;margin:0px;margin-left:4px;&quot;&gt;+ method(): Type&lt;/p&gt;" style="verticalAlign=top;align=left;overflow=fill;html=1;whiteSpace=wrap;" parent="1" vertex="1">
          <mxGeometry x="-12921" y="-7150" width="160" height="90" as="geometry" />
        </mxCell>
        <mxCell id="oBFbup7LQ6fdgkaT58L2-44" value="" style="rounded=0;whiteSpace=wrap;html=1;fillColor=none;" parent="1" vertex="1">
          <mxGeometry x="-13001" y="-6910" width="240" height="420" as="geometry" />
        </mxCell>
        <mxCell id="oBFbup7LQ6fdgkaT58L2-45" value="&lt;p style=&quot;margin:0px;margin-top:4px;text-align:center;&quot;&gt;&lt;b&gt;Scene&lt;/b&gt;&lt;/p&gt;&lt;hr size=&quot;1&quot; style=&quot;border-style:solid;&quot;&gt;&lt;p style=&quot;margin:0px;margin-left:4px;&quot;&gt;+ field: Type&lt;/p&gt;&lt;hr size=&quot;1&quot; style=&quot;border-style:solid;&quot;&gt;&lt;p style=&quot;margin:0px;margin-left:4px;&quot;&gt;+ method(): Type&lt;/p&gt;" style="verticalAlign=top;align=left;overflow=fill;html=1;whiteSpace=wrap;" parent="1" vertex="1">
          <mxGeometry x="-12721" y="-6910" width="160" height="90" as="geometry" />
        </mxCell>
        <mxCell id="oBFbup7LQ6fdgkaT58L2-46" value="&lt;p style=&quot;margin:0px;margin-top:4px;text-align:center;&quot;&gt;&lt;b&gt;GLFWHandler&lt;/b&gt;&lt;/p&gt;&lt;hr size=&quot;1&quot; style=&quot;border-style:solid;&quot;&gt;&lt;p style=&quot;margin:0px;margin-left:4px;&quot;&gt;&lt;br&gt;&lt;/p&gt;" style="verticalAlign=top;align=left;overflow=fill;html=1;whiteSpace=wrap;" parent="1" vertex="1">
          <mxGeometry x="-13970" y="-6630" width="160" height="50" as="geometry" />
        </mxCell>
        <mxCell id="oBFbup7LQ6fdgkaT58L2-47" value="&lt;p style=&quot;margin:0px;margin-top:4px;text-align:center;&quot;&gt;&lt;b&gt;GLFWWindow&lt;/b&gt;&lt;/p&gt;&lt;hr size=&quot;1&quot; style=&quot;border-style:solid;&quot;&gt;&lt;div style=&quot;height:2px;&quot;&gt;&lt;/div&gt;" style="verticalAlign=top;align=left;overflow=fill;html=1;whiteSpace=wrap;" parent="1" vertex="1">
          <mxGeometry x="-13960" y="-6520" width="140" height="60" as="geometry" />
        </mxCell>
        <mxCell id="oBFbup7LQ6fdgkaT58L2-48" value="Extends" style="endArrow=block;endSize=16;endFill=0;html=1;rounded=0;" parent="1" source="oBFbup7LQ6fdgkaT58L2-46" target="oBFbup7LQ6fdgkaT58L2-35" edge="1">
          <mxGeometry width="160" relative="1" as="geometry">
            <mxPoint x="-14081" y="-6760" as="sourcePoint" />
            <mxPoint x="-13921" y="-6760" as="targetPoint" />
          </mxGeometry>
        </mxCell>
        <mxCell id="oBFbup7LQ6fdgkaT58L2-49" value="" style="endArrow=diamondThin;endFill=1;endSize=24;html=1;rounded=0;" parent="1" source="oBFbup7LQ6fdgkaT58L2-46" target="oBFbup7LQ6fdgkaT58L2-47" edge="1">
          <mxGeometry width="160" relative="1" as="geometry">
            <mxPoint x="-13831" y="-6550" as="sourcePoint" />
            <mxPoint x="-13901" y="-6620" as="targetPoint" />
          </mxGeometry>
        </mxCell>
      </root>
    </mxGraphModel>
  </diagram>
</mxfile>
